<svg viewBox="0 0 1024 1024" xmlns="http://www.w3.org/2000/svg">
  <path d="M921.6 300.8c0-50.6-25.6-95.3-64-121.8L554.2 14.1c-28-19.3-64.6-19.3-92.6 0L158.4 179C119.8 205.5 94.4 250.2 94.4 300.8v402.4c0 50.6 25.4 95.3 64 121.8l303.2 164.8c28 19.3 64.6 19.3 92.6 0l303.2-164.8c38.6-26.5 64.2-71.2 64.2-121.8V300.8zM508 277.3l243.6 132.8c16.8 9.2 27.2 27 27.2 46.4v202.4c0 19.4-10.4 37.2-27.2 46.4L508 838.1c-16.8 9.2-37.6 9.2-54.4 0L210 705.3c-16.8-9.2-27.2-27-27.2-46.4V456.5c0-19.4 10.4-37.2 27.2-46.4L453.6 277.3c16.8-9.2 37.6-9.2 54.4 0z"/>
</svg>
